<svg width="27" height="27" viewBox="0 0 27 27" fill="none" xmlns="http://www.w3.org/2000/svg">
<path d="M13.337 0.000976562C5.99403 0.0279766 0.0510254 5.98698 0.0510254 13.334C0.0510254 18.933 3.50303 23.727 8.39403 25.702L8.48303 25.734C8.35003 24.681 8.25603 23.067 8.52303 21.907L10.083 15.28C10.083 15.28 9.68303 14.48 9.68303 13.307C9.68303 11.454 10.763 10.08 12.11 10.08C13.243 10.08 13.803 10.933 13.803 11.947C13.803 13.094 13.07 14.8 12.683 16.387C12.363 17.72 13.35 18.8 14.67 18.8C17.043 18.8 18.857 16.307 18.857 12.707C18.857 9.50698 16.564 7.29398 13.284 7.29398C13.208 7.28998 13.12 7.28798 13.031 7.28798C9.84203 7.28798 7.25803 9.87298 7.25803 13.061C7.25803 13.063 7.25803 13.065 7.25803 13.067C7.25803 14.214 7.69803 15.44 8.24503 16.107C8.35203 16.24 8.36503 16.36 8.32503 16.494L7.95203 18.001C7.89903 18.241 7.75203 18.308 7.51203 18.188C5.83203 17.401 4.79203 14.988 4.79203 13.015C4.79203 8.81498 7.85903 4.96198 13.619 4.96198C18.232 4.96198 21.846 8.24198 21.846 12.655C21.846 17.255 18.939 20.948 14.913 20.948C13.58 20.948 12.3 20.241 11.873 19.415L11.033 22.575C10.602 23.912 10.041 25.073 9.34503 26.138L9.37903 26.082C10.549 26.454 11.895 26.669 13.29 26.669C20.654 26.669 26.623 20.699 26.623 13.336C26.623 5.98898 20.681 0.0299764 13.341 0.00297642H13.338L13.337 0.000976562Z" fill="#020000"/>
</svg>
