<svg width="27" height="27" viewBox="0 0 27 27" fill="none" xmlns="http://www.w3.org/2000/svg">
<path d="M14.697 0.000976562C17.097 0.000976562 17.604 0.0279765 18.83 0.0809765C20.243 0.147976 21.217 0.373977 22.057 0.707977C22.937 1.04098 23.684 1.50798 24.417 2.24098C25.164 2.97398 25.617 3.72098 25.964 4.60098C26.297 5.44098 26.511 6.41398 26.577 7.84098C26.644 9.10798 26.657 9.60098 26.657 12.268V14.401C26.657 17.068 26.644 17.561 26.577 18.828C26.554 19.993 26.331 21.098 25.941 22.122L25.963 22.055C25.616 22.935 25.163 23.682 24.43 24.415C23.683 25.162 22.937 25.615 22.057 25.962C21.217 26.295 20.244 26.509 18.83 26.575C17.563 26.642 17.057 26.655 14.39 26.655H12.27C9.603 26.655 9.11 26.642 7.83 26.575C6.665 26.552 5.56 26.329 4.536 25.939L4.603 25.961C3.68 25.608 2.893 25.087 2.244 24.428L2.243 24.427C1.577 23.775 1.051 22.983 0.711 22.098L0.696 22.053C0.329 21.097 0.106 19.991 0.0829999 18.836V18.826C0.0299999 17.784 0 16.563 0 15.336C0 15.11 0.000999782 14.884 0.00299978 14.659V14.693V11.96C0.00299978 9.55998 0.0299999 9.05298 0.0829999 7.82698C0.15 6.41398 0.376 5.43998 0.696 4.59998C1.043 3.71998 1.496 2.97298 2.243 2.23998C2.888 1.57298 3.677 1.04998 4.56 0.720977L4.603 0.706976C5.558 0.335976 6.663 0.107976 7.818 0.0809765H7.83C9.057 0.0279765 9.563 0.000976562 11.963 0.000976562H14.697ZM14.724 2.40098H11.937C9.63 2.40098 9.137 2.42798 7.937 2.48098C6.644 2.53398 5.937 2.74798 5.47 2.93398C4.843 3.17398 4.403 3.46698 3.937 3.93398C3.471 4.40098 3.177 4.84098 2.937 5.46698C2.764 5.93398 2.537 6.63998 2.484 7.94698C2.431 9.14698 2.404 9.62698 2.404 11.947V14.72C2.404 17.04 2.431 17.52 2.484 18.72C2.537 20.013 2.751 20.72 2.937 21.187C3.177 21.814 3.47 22.254 3.937 22.72C4.404 23.186 4.844 23.48 5.47 23.72C5.937 23.907 6.643 24.12 7.95 24.173C9.243 24.24 9.71 24.253 12.59 24.253H14.07C16.963 24.253 17.417 24.24 18.723 24.173C20.016 24.12 20.723 23.906 21.19 23.72C21.817 23.48 22.257 23.187 22.723 22.72C23.189 22.253 23.483 21.813 23.723 21.187C23.91 20.72 24.123 20.014 24.176 18.72C24.243 17.413 24.256 16.96 24.256 14.067V12.6C24.256 9.70698 24.243 9.23998 24.176 7.93298C24.123 6.63998 23.909 5.93298 23.723 5.46598C23.497 4.86498 23.156 4.35198 22.724 3.93398L22.723 3.93298C22.303 3.49998 21.791 3.15898 21.218 2.94198L21.19 2.93298C20.458 2.65698 19.612 2.49198 18.728 2.47998H18.723C17.695 2.42798 16.492 2.39798 15.281 2.39798C15.085 2.39798 14.889 2.39898 14.693 2.39998H14.723L14.724 2.40098ZM13.337 6.48098C17.118 6.48098 20.184 9.54598 20.184 13.328C20.184 17.11 17.119 20.175 13.337 20.175C9.556 20.175 6.49 17.11 6.49 13.328C6.49 9.54598 9.555 6.48098 13.337 6.48098ZM13.337 8.88098C10.881 8.88098 8.89 10.872 8.89 13.328C8.89 15.784 10.881 17.775 13.337 17.775C15.793 17.775 17.784 15.784 17.784 13.328C17.784 10.872 15.793 8.88098 13.337 8.88098ZM20.444 4.61398C21.328 4.61398 22.044 5.32998 22.044 6.21398C22.044 7.09798 21.328 7.81398 20.444 7.81398C19.56 7.81398 18.844 7.09798 18.844 6.21398C18.844 5.32998 19.56 4.61398 20.444 4.61398Z" fill="#020000"/>
</svg>
