<svg width="27" height="23" viewBox="0 0 27 23" fill="none" xmlns="http://www.w3.org/2000/svg">
<path d="M26.67 3.17397C25.67 3.66697 24.67 3.84097 23.497 4.00097C24.67 3.33397 25.497 2.33397 25.83 1.00097C24.825 1.60897 23.654 2.07197 22.407 2.32297L22.337 2.33497C21.306 1.32097 19.897 0.688969 18.341 0.667969H18.337C15.497 0.667969 13.004 3.17497 13.004 6.17497C13.004 6.66797 13.004 7.00197 13.177 7.33497C8.599 7.15697 4.558 4.99797 1.866 1.69597L1.844 1.66797C1.419 2.39397 1.168 3.26597 1.168 4.19697C1.168 4.30597 1.17101 4.41497 1.178 4.52297L1.177 4.50797C1.211 6.38597 2.18601 8.02897 3.65001 8.98897L3.67101 9.00197C2.83101 9.00197 2.004 8.66897 1.164 8.33497C1.164 11.002 3.004 13.175 5.497 13.668C5.004 13.841 4.497 13.841 4.004 13.841C3.671 13.841 3.337 13.841 3.004 13.668C3.671 15.841 5.671 17.508 8.177 17.508C6.377 18.963 4.061 19.843 1.54 19.843C1.469 19.843 1.398 19.842 1.327 19.841H1.338H0.00500488C2.37 21.35 5.241 22.27 8.321 22.334H8.33801C18.338 22.334 23.845 14.001 23.845 6.82697V6.15997C24.992 5.36997 25.938 4.37297 26.648 3.21597L26.672 3.17397H26.67Z" fill="#020000"/>
</svg>
